<svg xmlns="http://www.w3.org/2000/svg" viewBox="0 0 1983.35 507.1"><defs><style>.cls-1{font-size:470px;}.cls-1,.cls-4{fill:#e5e4e4;}.cls-1,.cls-5{font-family:CeraPROModern-Medium, Cera PROModern;font-weight:500;}.cls-2{letter-spacing:-0.01em;}.cls-3{letter-spacing:-0.01em;}.cls-5{font-size:50px;}.cls-10,.cls-5{fill:#181818;}.cls-6{letter-spacing:-0.01em;}.cls-7{letter-spacing:0em;}.cls-8{letter-spacing:-0.02em;}.cls-9{letter-spacing:-0.05em;}.cls-11{letter-spacing:0em;}.cls-12{letter-spacing:-0.08em;}.cls-13{letter-spacing:-0.07em;}.cls-14{letter-spacing:-0.05em;}</style></defs><g id="Nom"><text id="BG" class="cls-1" transform="translate(0 390.1)">VU<tspan class="cls-2" x="637.31" y="0">L</tspan><tspan class="cls-3" x="872.31" y="0">C</tspan><tspan x="1204.6" y="0">AIN</tspan></text></g><g id="Soulignage"><rect id="BG-2" data-name="BG" class="cls-4" x="0.18" y="432.1" width="1983" height="75"/></g><g id="Attache"><text id="NNAC" class="cls-5" transform="translate(11.61 483.63)">A<tspan class="cls-6" x="33.1" y="0">r</tspan><tspan x="51.35" y="0">decho </tspan><tspan class="cls-7" x="212.2" y="0">N</tspan><tspan x="247.5" y="0">ou</tspan><tspan class="cls-8" x="306.45" y="0">v</tspan><tspan x="332.9" y="0">elle</tspan><tspan class="cls-9" x="415.6" y="0"> </tspan><tspan x="427.1" y="0">Alliance </tspan><tspan class="cls-6" x="624.39" y="0">C</tspan><tspan x="659.74" y="0">onsortium</tspan></text></g><g id="Croix"><polygon id="NNAC-2" data-name="NNAC" class="cls-10" points="1053.03 454.08 1038.03 454.08 1038.03 441.61 1028.03 441.61 1028.03 454.08 1013.03 454.08 1013.03 464.08 1028.03 464.08 1028.03 501.61 1038.03 501.61 1038.03 464.08 1053.03 464.08 1053.03 454.08"/></g><g id="Devise"><text id="NNAC-3" data-name="NNAC" class="cls-5" transform="translate(1151.26 485.92)"><tspan class="cls-11">C</tspan><tspan x="35.6" y="0">OOPERANTES PRO </tspan><tspan class="cls-12" x="484.65" y="0">P</tspan><tspan class="cls-13" x="509.79" y="0">A</tspan><tspan x="539.14" y="0">TRI</tspan><tspan class="cls-14" x="613.44" y="0">A</tspan></text></g></svg>